<mxfile host="app.diagrams.net" modified="2022-06-06T06:11:53.866Z" agent="5.0 (Macintosh)" etag="qmKZo9A3vaTBBCu1bW53" version="19.0.0" type="github">
  <diagram id="1qn5oPtLVIL23IkNXNbJ" name="Page-1">
    <mxGraphModel dx="1442" dy="847" grid="1" gridSize="10" guides="1" tooltips="1" connect="1" arrows="1" fold="1" page="1" pageScale="1" pageWidth="827" pageHeight="1169" math="0" shadow="0">
      <root>
        <mxCell id="0" />
        <mxCell id="1" parent="0" />
        <mxCell id="q3ZWYqUbZcjqGwGnrm3s-12" style="edgeStyle=orthogonalEdgeStyle;rounded=0;orthogonalLoop=1;jettySize=auto;html=1;exitX=0.5;exitY=0;exitDx=0;exitDy=0;entryX=0.5;entryY=1;entryDx=0;entryDy=0;" edge="1" parent="1" source="q3ZWYqUbZcjqGwGnrm3s-1" target="q3ZWYqUbZcjqGwGnrm3s-4">
          <mxGeometry relative="1" as="geometry">
            <Array as="points">
              <mxPoint x="360" y="215" />
              <mxPoint x="460" y="215" />
            </Array>
          </mxGeometry>
        </mxCell>
        <mxCell id="q3ZWYqUbZcjqGwGnrm3s-13" style="edgeStyle=orthogonalEdgeStyle;rounded=0;orthogonalLoop=1;jettySize=auto;html=1;exitX=0.25;exitY=0;exitDx=0;exitDy=0;entryX=0.5;entryY=1;entryDx=0;entryDy=0;" edge="1" parent="1" source="q3ZWYqUbZcjqGwGnrm3s-1" target="q3ZWYqUbZcjqGwGnrm3s-3">
          <mxGeometry relative="1" as="geometry">
            <Array as="points">
              <mxPoint x="330" y="215" />
              <mxPoint x="270" y="215" />
            </Array>
          </mxGeometry>
        </mxCell>
        <mxCell id="q3ZWYqUbZcjqGwGnrm3s-1" value="&lt;div&gt;Repository&lt;/div&gt;" style="rounded=1;whiteSpace=wrap;html=1;" vertex="1" parent="1">
          <mxGeometry x="300" y="240" width="120" height="60" as="geometry" />
        </mxCell>
        <mxCell id="q3ZWYqUbZcjqGwGnrm3s-2" value="" style="ellipse;shape=cloud;whiteSpace=wrap;html=1;" vertex="1" parent="1">
          <mxGeometry x="160" y="20" width="120" height="80" as="geometry" />
        </mxCell>
        <mxCell id="q3ZWYqUbZcjqGwGnrm3s-14" style="edgeStyle=orthogonalEdgeStyle;rounded=0;orthogonalLoop=1;jettySize=auto;html=1;entryX=0.55;entryY=0.95;entryDx=0;entryDy=0;entryPerimeter=0;" edge="1" parent="1" source="q3ZWYqUbZcjqGwGnrm3s-3" target="q3ZWYqUbZcjqGwGnrm3s-2">
          <mxGeometry relative="1" as="geometry" />
        </mxCell>
        <mxCell id="q3ZWYqUbZcjqGwGnrm3s-15" style="edgeStyle=orthogonalEdgeStyle;rounded=0;orthogonalLoop=1;jettySize=auto;html=1;exitX=0.75;exitY=0;exitDx=0;exitDy=0;entryX=0.5;entryY=1;entryDx=0;entryDy=0;" edge="1" parent="1" source="q3ZWYqUbZcjqGwGnrm3s-3" target="q3ZWYqUbZcjqGwGnrm3s-5">
          <mxGeometry relative="1" as="geometry" />
        </mxCell>
        <mxCell id="q3ZWYqUbZcjqGwGnrm3s-3" value="API" style="shape=parallelogram;perimeter=parallelogramPerimeter;whiteSpace=wrap;html=1;fixedSize=1;" vertex="1" parent="1">
          <mxGeometry x="210" y="130" width="120" height="60" as="geometry" />
        </mxCell>
        <mxCell id="q3ZWYqUbZcjqGwGnrm3s-4" value="Library" style="shape=parallelogram;perimeter=parallelogramPerimeter;whiteSpace=wrap;html=1;fixedSize=1;" vertex="1" parent="1">
          <mxGeometry x="400" y="130" width="120" height="60" as="geometry" />
        </mxCell>
        <mxCell id="q3ZWYqUbZcjqGwGnrm3s-5" value="DIO" style="shape=parallelogram;perimeter=parallelogramPerimeter;whiteSpace=wrap;html=1;fixedSize=1;" vertex="1" parent="1">
          <mxGeometry x="300" y="30" width="120" height="60" as="geometry" />
        </mxCell>
        <mxCell id="q3ZWYqUbZcjqGwGnrm3s-11" style="edgeStyle=orthogonalEdgeStyle;rounded=0;orthogonalLoop=1;jettySize=auto;html=1;exitX=0.5;exitY=0;exitDx=0;exitDy=0;entryX=0.5;entryY=1;entryDx=0;entryDy=0;" edge="1" parent="1" source="q3ZWYqUbZcjqGwGnrm3s-10" target="q3ZWYqUbZcjqGwGnrm3s-1">
          <mxGeometry relative="1" as="geometry" />
        </mxCell>
        <mxCell id="q3ZWYqUbZcjqGwGnrm3s-10" value="&lt;div&gt;Service/BLoC&lt;/div&gt;" style="shape=hexagon;perimeter=hexagonPerimeter2;whiteSpace=wrap;html=1;fixedSize=1;" vertex="1" parent="1">
          <mxGeometry x="300" y="340" width="120" height="80" as="geometry" />
        </mxCell>
        <mxCell id="q3ZWYqUbZcjqGwGnrm3s-20" style="edgeStyle=orthogonalEdgeStyle;rounded=0;orthogonalLoop=1;jettySize=auto;html=1;exitX=0.5;exitY=0;exitDx=0;exitDy=0;entryX=0.5;entryY=1;entryDx=0;entryDy=0;" edge="1" parent="1" source="q3ZWYqUbZcjqGwGnrm3s-17" target="q3ZWYqUbZcjqGwGnrm3s-10">
          <mxGeometry relative="1" as="geometry" />
        </mxCell>
        <mxCell id="q3ZWYqUbZcjqGwGnrm3s-17" value="Model" style="ellipse;whiteSpace=wrap;html=1;" vertex="1" parent="1">
          <mxGeometry x="300" y="470" width="120" height="80" as="geometry" />
        </mxCell>
        <mxCell id="q3ZWYqUbZcjqGwGnrm3s-22" style="edgeStyle=orthogonalEdgeStyle;rounded=0;orthogonalLoop=1;jettySize=auto;html=1;exitX=0;exitY=0.5;exitDx=0;exitDy=0;entryX=1;entryY=0.5;entryDx=0;entryDy=0;" edge="1" parent="1" source="q3ZWYqUbZcjqGwGnrm3s-18" target="q3ZWYqUbZcjqGwGnrm3s-17">
          <mxGeometry relative="1" as="geometry" />
        </mxCell>
        <mxCell id="q3ZWYqUbZcjqGwGnrm3s-18" value="WidgetModel" style="ellipse;whiteSpace=wrap;html=1;" vertex="1" parent="1">
          <mxGeometry x="440" y="470" width="120" height="80" as="geometry" />
        </mxCell>
        <mxCell id="q3ZWYqUbZcjqGwGnrm3s-21" style="edgeStyle=orthogonalEdgeStyle;rounded=0;orthogonalLoop=1;jettySize=auto;html=1;exitX=0;exitY=0.5;exitDx=0;exitDy=0;entryX=1;entryY=0.5;entryDx=0;entryDy=0;" edge="1" parent="1" source="q3ZWYqUbZcjqGwGnrm3s-19" target="q3ZWYqUbZcjqGwGnrm3s-18">
          <mxGeometry relative="1" as="geometry" />
        </mxCell>
        <mxCell id="q3ZWYqUbZcjqGwGnrm3s-19" value="Widget" style="ellipse;whiteSpace=wrap;html=1;" vertex="1" parent="1">
          <mxGeometry x="580" y="470" width="120" height="80" as="geometry" />
        </mxCell>
      </root>
    </mxGraphModel>
  </diagram>
</mxfile>
